<?xml version="1.0" standalone="no"?><!DOCTYPE svg PUBLIC "-//W3C//DTD SVG 1.1//EN" "http://www.w3.org/Graphics/SVG/1.1/DTD/svg11.dtd"><svg t="1533630643593" class="icon" style="" viewBox="0 0 1024 1024" version="1.1" xmlns="http://www.w3.org/2000/svg" p-id="976" xmlns:xlink="http://www.w3.org/1999/xlink" width="200" height="200"><defs><style type="text/css"></style></defs><path d="M229.138724 109.293195c53.145407 0 96.214319 40.830941 96.214319 91.130533 0 50.40704-43.068911 91.237981-96.214319 91.237981-53.139268 0-96.208179-40.830941-96.208179-91.237981C132.930545 150.125159 175.999456 109.293195 229.138724 109.293195zM264.230963 914.705781l-18.095124-271.996834-37.430494 0-14.663978 271.996834-88.028892 0 19.401886-319.164087-60.865229-43.468001 46.457078-237.053997 100.676957 0-7.451716 12.063757 9.921977 19.162432-21.668509 146.877185 33.875528 32.657794 0 2.571568 1.294482-1.277086 1.342578 1.277086 0-2.571568 33.892925-32.657794-21.75242-146.877185 9.998725-19.162432-7.540743-12.063757 101.881388 0 226.016617 10.148128-43.330878 72.170716-201.251583 3.197832 6.932899 195.005322 12.928451 319.164087L264.230963 914.705781zM607.616708 518.096858l54.452169-147.736762 8.292873-22.503527 17.193591 17.325597 49.696866 50.108235 72.665996-118.347408 26.387997 14.455223-82.891895 135.183865-10.386558 16.788361-14.008039-14.07353-46.457078-46.916543-52.411697 142.397151-6.359848 17.146519-16.23373-9.724479-75.708286-45.1145-80.052221 26.441209-10.064216-27.300786 87.068008-28.785603 6.878664-2.266623 6.228865 3.693112L607.616708 518.096858zM752.102427 914.705781 457.709513 914.705781l0-49.309032 294.392914 0L752.102427 914.705781zM959.450868 163.667593l0 513.960655 0 28.886911-30.629601 0L643.049708 706.515159l0 143.679353-84.019579 0L559.03013 706.516182 400.208914 706.516182l0-57.905828 498.066663 0L898.275577 192.674231 375.056048 192.674231 375.056048 134.690632l553.766242 0 30.629601 0L959.451892 163.667593z" p-id="977"></path></svg>